<?xml version="1.0" encoding="UTF-8"?>
<svg xmlns="http://www.w3.org/2000/svg" width="1180" height="610" viewBox="0 0 1180 610">
<defs><style>text{font-family:ui-monospace,SFMono-Regular,Menlo,Monaco,Consolas,monospace}</style></defs>
<rect width="1180" height="610" fill="#0A101F" rx="12"/>
<rect x="8" y="8" width="1164" height="594" fill="#0d1117" rx="10" stroke="#1e293b" stroke-width="1.5"/>
<rect x="8" y="8" width="1164" height="36" fill="#111827" rx="10"/>
<rect x="8" y="28" width="1164" height="16" fill="#111827"/>
<circle cx="28" cy="26" r="6" fill="#EF4444"/><circle cx="48" cy="26" r="6" fill="#F59E0B"/><circle cx="68" cy="26" r="6" fill="#10B981"/>
<text x="90" y="30" fill="#22D3EE" font-size="13" font-weight="500">profile.sh --live</text>
<rect x="1040" y="16" width="52" height="20" rx="4" fill="#EF4444"><animate attributeName="opacity" values="1;0.45;1" dur="1.6s" repeatCount="indefinite"/></rect>
<text x="1066" y="30" fill="#fff" font-size="11" font-weight="600" text-anchor="middle">LIVE</text>
<rect x="24" y="56" width="420" height="530" fill="#0F172A" rx="8" stroke="#1e293b" stroke-width="1"/>
<text x="36" y="76" fill="#22D3EE" font-size="11" font-weight="500">VISUAL.MAP</text>
<!-- Portrait dots will be injected - using reduced set for reliability -->
<g opacity="0"><animate attributeName="opacity" values="0;1" dur="1s" begin="0.0s" fill="freeze"/><circle cx="240" cy="300" r="80" fill="none" stroke="#A78BFA" stroke-width="2" opacity="0.3"/></g>
<rect x="460" y="56" width="696" height="530" fill="#0F172A" rx="8" stroke="#1e293b" stroke-width="1"/>
<text x="476" y="76" fill="#22D3EE" font-size="11" font-weight="500">SYSTEM.INFO</text>
<rect x="980" y="62" width="160" height="24" rx="12" fill="#1e293b" stroke="#22D3EE" stroke-width="1"/>
<text x="1060" y="78" fill="#22D3EE" font-size="12" font-weight="500" text-anchor="middle">@abinash123hg</text>
<text x="476" y="110" fill="#94A3B8" font-size="13">Subject</text><text x="620" y="110" fill="#475569" font-size="13">.................</text><text x="1130" y="110" fill="#F8FAFC" font-size="13" text-anchor="end">Abinash Swain</text>
<text x="476" y="138" fill="#94A3B8" font-size="13">Role</text><text x="620" y="138" fill="#475569" font-size="13">......................</text><text x="1130" y="138" fill="#F8FAFC" font-size="13" text-anchor="end">B.Tech CSE (AIML)</text>
<text x="476" y="166" fill="#94A3B8" font-size="13">Origin</text><text x="620" y="166" fill="#475569" font-size="13">...............</text><text x="1130" y="166" fill="#F8FAFC" font-size="13" text-anchor="end">Odisha, Bhubaneswar</text>
<text x="476" y="194" fill="#94A3B8" font-size="13">Education</text><text x="620" y="194" fill="#475569" font-size="13">............</text><text x="1130" y="194" fill="#F8FAFC" font-size="13" text-anchor="end">Centurion University</text>
<text x="476" y="222" fill="#94A3B8" font-size="13">Status</text><text x="620" y="222" fill="#475569" font-size="13">.....</text><text x="1130" y="222" fill="#F8FAFC" font-size="13" text-anchor="end">Building + Learning + Shipping</text>
<text x="476" y="250" fill="#94A3B8" font-size="13">ToolChain</text><text x="620" y="250" fill="#475569" font-size="13">..........</text><text x="1130" y="250" fill="#F8FAFC" font-size="13" text-anchor="end">VS Code · Git · Streamlit</text>
<text x="476" y="278" fill="#94A3B8" font-size="13">Core.Lang</text><text x="620" y="278" fill="#475569" font-size="13">.........</text><text x="1130" y="278" fill="#F8FAFC" font-size="13" text-anchor="end">Python · Java · SQL · JS</text>
<text x="476" y="306" fill="#94A3B8" font-size="13">Core.Frontend</text><text x="620" y="306" fill="#475569" font-size="13">......</text><text x="1130" y="306" fill="#F8FAFC" font-size="13" text-anchor="end">React · Vite · Tailwind</text>
<text x="476" y="334" fill="#94A3B8" font-size="13">Core.Backend</text><text x="620" y="334" fill="#475569" font-size="13">............</text><text x="1130" y="334" fill="#F8FAFC" font-size="13" text-anchor="end">Python · FastAPI</text>
<text x="476" y="362" fill="#94A3B8" font-size="13">Core.Database</text><text x="620" y="362" fill="#475569" font-size="13">.............</text><text x="1130" y="362" fill="#F8FAFC" font-size="13" text-anchor="end">SQL · Pandas</text>
<text x="476" y="390" fill="#94A3B8" font-size="13">Core.Infra</text><text x="620" y="390" fill="#475569" font-size="13">.....</text><text x="1130" y="390" fill="#F8FAFC" font-size="13" text-anchor="end">GitHub · Streamlit · Vercel</text>
<text x="476" y="418" fill="#94A3B8" font-size="13">Grid.Mail</text><text x="620" y="418" fill="#475569" font-size="13">....</text><text x="1130" y="418" fill="#F8FAFC" font-size="13" text-anchor="end">swainabinash839@gmail.com</text>
<text x="476" y="446" fill="#94A3B8" font-size="13">Grid.Portfolio</text><text x="620" y="446" fill="#475569" font-size="13">....</text><text x="1130" y="446" fill="#F8FAFC" font-size="13" text-anchor="end">abinash123hg.github.io</text>
<text x="476" y="474" fill="#94A3B8" font-size="13">Grid.LinkedIn</text><text x="620" y="474" fill="#475569" font-size="13">....</text><text x="1130" y="474" fill="#F8FAFC" font-size="13" text-anchor="end">abinash-swain-a941a3330</text>
<text x="476" y="502" fill="#94A3B8" font-size="13">Grid.GitHub</text><text x="620" y="502" fill="#475569" font-size="13">............</text><text x="1130" y="502" fill="#F8FAFC" font-size="13" text-anchor="end">abinash123hg</text>
<text x="590" y="575" fill="#475569" font-size="11">AI · ML · Deep Learning · RAG · Computer Vision · Building practical systems</text>
</svg>